<?xml version="1.0" encoding="UTF-8"?>
<!DOCTYPE svg PUBLIC "-//W3C//DTD SVG 1.1//EN" "http://www.w3.org/Graphics/SVG/1.1/DTD/svg11.dtd">

<svg xmlns="http://www.w3.org/2000/svg" xml:space="preserve" width="837px" height="168px" version="1.1" style="shape-rendering:geometricPrecision; text-rendering:geometricPrecision; image-rendering:optimizeQuality; fill-rule:evenodd; clip-rule:evenodd"
viewBox="0 0 837 168.2"
 xmlns:xlink="http://www.w3.org/1999/xlink">
 <defs>
  <style type="text/css">
   <![CDATA[
    .fil0 {fill:#1515AF}
    .fil2 {fill:#343A40;fill-rule:nonzero}
    .fil1 {fill:white;fill-rule:nonzero}
   ]]>
  </style>
 </defs>
 <g id="Layer_x0020_1">

  <g id="_2381165969264">
   <rect class="fil0" width="363.57" height="168.21"/>
   <path class="fil1" d="M173.01 34.71c9.19,0 17.55,2.15 25.09,6.45 7.54,4.3 13.46,10.22 17.76,17.76 4.3,7.54 6.45,15.96 6.45,25.27l0 42.95c0,1.53 -0.47,2.79 -1.41,3.79 -0.94,1.01 -2.24,1.51 -3.89,1.51 -1.53,0 -2.8,-0.5 -3.8,-1.51 -1,-1 -1.5,-2.27 -1.5,-3.79l0 -13.79c-3.89,6.24 -9.22,11.17 -15.99,14.76 -6.78,3.59 -14.35,5.39 -22.71,5.39 -9.31,0 -17.74,-2.15 -25.28,-6.45 -7.54,-4.3 -13.46,-10.22 -17.75,-17.76 -4.3,-7.54 -6.46,-15.91 -6.46,-25.1 0,-9.3 2.15,-17.73 6.46,-25.27 4.29,-7.54 10.21,-13.46 17.75,-17.76 7.55,-4.3 15.97,-6.45 25.28,-6.45l0 0zm0 88.89c7.3,0 13.9,-1.71 19.79,-5.13 5.89,-3.41 10.52,-8.12 13.88,-14.13 3.36,-6.01 5.03,-12.73 5.03,-20.15 0,-7.42 -1.67,-14.14 -5.03,-20.15 -3.36,-6.01 -7.98,-10.75 -13.88,-14.22 -5.89,-3.48 -12.49,-5.22 -19.79,-5.22 -7.31,0 -13.91,1.74 -19.8,5.22 -5.89,3.47 -10.54,8.22 -13.96,14.22 -3.41,6.01 -5.12,12.73 -5.12,20.15 0,7.42 1.71,14.14 5.12,20.15 3.42,6.01 8.08,10.72 13.96,14.13 5.9,3.42 12.49,5.13 19.8,5.13z"/>
   <path class="fil2" d="M436.76 18.99c8.57,0 16.1,1.9 22.6,5.69 6.5,3.8 11.6,8.73 15.28,14.8 0.76,1.19 1.14,2.49 1.14,3.9 0,2.06 -0.97,3.69 -2.93,4.88 -0.86,0.43 -1.84,0.65 -2.92,0.65 -1.2,0 -2.31,-0.3 -3.33,-0.9 -1.03,-0.59 -1.88,-1.43 -2.53,-2.52 -6.07,-9.53 -15.22,-14.36 -27.47,-14.46 -8.78,0 -15.72,1.84 -20.81,5.52 -5.09,3.69 -7.64,8.94 -7.64,15.77 0,12.68 10.24,20.38 30.73,23.08 13.44,1.96 23.46,6.07 30.07,12.36 6.61,6.28 9.92,14.57 9.92,24.87 0,7.59 -1.85,14.14 -5.53,19.67 -3.68,5.53 -8.72,9.73 -15.12,12.6 -6.39,2.87 -13.54,4.31 -21.46,4.31 -10.29,0 -19.43,-2.2 -27.39,-6.59 -7.97,-4.39 -13.68,-10.32 -17.15,-17.8 -0.43,-0.76 -0.65,-1.62 -0.65,-2.6 0,-1.52 0.57,-2.79 1.7,-3.82 1.14,-1.03 2.69,-1.55 4.64,-1.55 1.3,0 2.52,0.36 3.66,1.06 1.13,0.71 1.97,1.71 2.52,3.01 2.49,4.87 6.64,8.8 12.43,11.79 5.8,2.98 12.55,4.47 20.24,4.47 8.89,0 16.04,-2.15 21.46,-6.43 5.42,-4.28 8.13,-10.26 8.13,-17.96 0,-6.83 -2.52,-12.57 -7.56,-17.23 -5.04,-4.66 -12.6,-7.64 -22.68,-8.94 -12.57,-1.52 -22.46,-5.45 -29.66,-11.79 -7.21,-6.34 -10.81,-14.12 -10.81,-23.33 0,-6.5 1.76,-12.22 5.28,-17.15 3.52,-4.93 8.4,-8.73 14.63,-11.38 6.23,-2.65 13.31,-3.98 21.22,-3.98l-0.01 0zm148.1 1.63c1.63,0 2.96,0.57 3.99,1.7 1.02,1.14 1.54,2.53 1.54,4.15 0,1.52 -0.38,2.87 -1.14,4.07l-44.38 70.06 0 40.65c0,1.73 -0.6,3.22 -1.79,4.47 -1.19,1.24 -2.71,1.87 -4.55,1.87 -1.73,0 -3.23,-0.63 -4.47,-1.87 -1.25,-1.25 -1.87,-2.74 -1.87,-4.47l0 -40.65 -44.22 -70.06c-0.87,-1.41 -1.3,-2.77 -1.3,-4.07 0,-1.62 0.59,-3.01 1.79,-4.15 1.19,-1.13 2.65,-1.7 4.39,-1.7 1.19,0 2.19,0.24 3.01,0.73 0.81,0.49 1.59,1.27 2.35,2.36l40.48 65.19 40.32 -64.87c0.87,-1.19 1.73,-2.06 2.6,-2.6 0.87,-0.54 1.95,-0.81 3.25,-0.81l0 0zm114.77 6.34c0,-1.84 0.63,-3.36 1.87,-4.55 1.25,-1.19 2.74,-1.79 4.47,-1.79 1.85,0 3.36,0.6 4.56,1.79 1.19,1.19 1.78,2.71 1.78,4.55l0 114.29c0,1.73 -0.59,3.22 -1.78,4.47 -1.2,1.25 -2.72,1.87 -4.56,1.87 -2.16,0 -3.74,-0.71 -4.71,-2.12l-77.87 -102.09 0 97.87c0,1.73 -0.6,3.22 -1.79,4.47 -1.19,1.25 -2.71,1.87 -4.55,1.87 -1.85,0 -3.36,-0.6 -4.55,-1.79 -1.2,-1.19 -1.79,-2.71 -1.79,-4.55l0 -114.29c0,-1.84 0.59,-3.36 1.79,-4.55 1.19,-1.19 2.71,-1.79 4.55,-1.79 1.95,0 3.57,0.76 4.87,2.28l77.71 102.09 0 -98.02 0 -0.01zm95.76 -7.97c7.8,0 14.9,1.14 21.29,3.42 6.39,2.27 12.57,5.91 18.53,10.89 1.2,0.87 1.79,2.12 1.79,3.74 0,0.87 -0.22,1.65 -0.65,2.36 -0.43,0.7 -1.03,1.21 -1.79,1.54 -0.21,0.76 -0.7,1.36 -1.46,1.79 -0.76,0.43 -1.57,0.65 -2.44,0.65 -1.62,0 -2.98,-0.49 -4.07,-1.46 -4.22,-3.8 -8.83,-6.56 -13.81,-8.3 -4.99,-1.73 -10.78,-2.59 -17.4,-2.59 -9.1,0 -17.56,2.41 -25.36,7.23 -7.8,4.82 -14.01,11.3 -18.61,19.43 -4.61,8.13 -6.91,16.91 -6.91,26.33 0,9.65 2.28,18.54 6.83,26.66 4.55,8.13 10.73,14.58 18.53,19.35 7.8,4.77 16.31,7.15 25.52,7.15 11.82,0 22.49,-3.79 32.02,-11.37 1.2,-0.87 2.39,-1.31 3.58,-1.31 1.63,0 3.04,0.57 4.23,1.71 1.19,1.14 1.78,2.63 1.78,4.47 0,1.73 -0.59,3.25 -1.78,4.55 -10.19,9.32 -23.47,13.99 -39.83,13.99 -11.49,0 -22.06,-2.93 -31.7,-8.78 -9.65,-5.86 -17.32,-13.77 -23.01,-23.74 -5.69,-9.97 -8.53,-20.86 -8.53,-32.68 0,-11.7 2.82,-22.54 8.45,-32.51 5.64,-9.97 13.28,-17.88 22.92,-23.73 9.65,-5.86 20.27,-8.78 31.86,-8.78l0.02 -0.01z"/>
   <path class="fil1" d="M286.65 34.71c-9.19,0 -17.55,2.15 -25.09,6.45 -7.54,4.3 -13.46,10.22 -17.76,17.76 -4.3,7.54 -6.45,15.96 -6.45,25.27l0 42.95c0,1.53 0.47,2.79 1.41,3.79 0.94,1.01 2.24,1.51 3.89,1.51 1.53,0 2.8,-0.5 3.8,-1.51 0.98,-0.98 1.49,-2.23 1.5,-3.72l0 -0.07 0 -13.79 0 -29.16c0,-7.42 1.68,-14.14 5.04,-20.14 3.36,-6.01 7.98,-10.75 13.87,-14.23 5.89,-3.48 12.49,-5.21 19.8,-5.21 7.3,0 13.9,1.73 19.79,5.21 5.89,3.48 10.55,8.22 13.96,14.23 3.42,6 5.13,12.72 5.13,20.14l10.6 0c0,-9.3 -2.15,-17.73 -6.45,-25.27 -4.3,-7.54 -10.22,-13.46 -17.76,-17.76 -7.54,-4.3 -15.97,-6.45 -25.27,-6.45l-0.01 0z"/>
   <path class="fil1" d="M81.55 34.71c9.19,0 17.55,2.15 25.09,6.45 3.77,2.15 7.14,4.7 10.1,7.66l-7.34 7.34c-2.35,-2.45 -5.04,-4.56 -8.06,-6.34 -5.89,-3.48 -12.49,-5.22 -19.79,-5.22 -7.31,0 -13.91,1.74 -19.8,5.22 -5.89,3.47 -10.54,8.22 -13.96,14.22 -3.41,6.01 -5.12,12.73 -5.12,20.15 0,7.42 1.71,14.14 5.12,20.15 3.42,6.01 8.07,10.72 13.96,14.14 5.89,3.41 12.49,5.12 19.8,5.12 7.3,0 13.9,-1.71 19.79,-5.12 3.05,-1.78 5.76,-3.89 8.14,-6.36l6.7 6.7c-3.3,3.72 -7.27,6.82 -11.92,9.29 -6.78,3.59 -14.35,5.39 -22.72,5.39 -9.3,0 -17.73,-2.15 -25.27,-6.45 -7.54,-4.3 -13.46,-10.22 -17.76,-17.76 -4.3,-7.54 -6.45,-15.91 -6.45,-25.09 0,-9.31 2.15,-17.74 6.45,-25.27 4.3,-7.55 10.22,-13.46 17.76,-17.77 7.54,-4.3 15.97,-6.45 25.27,-6.45l0.01 0z"/>
  </g>
 </g>
</svg>
